<?xml version="1.0" encoding="UTF-8"?>
<svg width="77px" height="77px" viewBox="0 0 77 77" version="1.1" xmlns="http://www.w3.org/2000/svg" xmlns:xlink="http://www.w3.org/1999/xlink">
    <!-- Generator: Sketch 53 (72520) - https://sketchapp.com -->
    <title>Op Risk</title>
    <desc>Created with Sketch.</desc>
    <defs>
        <polygon id="path-1" points="0 74.6826923 74.6743421 74.6826923 74.6743421 1.92307692 0 1.92307692"></polygon>
    </defs>
    <g id="Misc." stroke="none" stroke-width="1" fill="none" fill-rule="evenodd">
        <g id="Maturity-Model-Tool-(1680)" transform="translate(-322.000000, -148.000000)">
            <g id="Operational-Risk-Hero" transform="translate(0.000000, 79.000000)">
                <g id="Operational-Risk" transform="translate(315.000000, 62.000000)">
                    <g id="Op-Risk" transform="translate(8.000000, 8.000000)">
                        <g id="OP-Risk-Icon">
                            <path d="M0,37.5 C0,16.7892508 16.7890321,0 37.4995114,0 C58.2099907,0 75,16.7892508 75,37.5 C75,58.2107492 58.2099907,75 37.4995114,75 C16.7890321,75 0,58.2107492 0,37.5 Z" id="Stroke-1" stroke="#FFFFFF"></path>
                            <path d="M54.2542105,25.755 C54.0765789,25.755 53.9305263,25.8953846 53.9305263,26.0703846 L53.9305263,36.4665385 C53.9305263,36.6396154 54.0765789,36.78 54.2542105,36.78 L61.8647368,36.78 C62.0443421,36.78 62.1884211,36.6396154 62.1884211,36.4665385 L62.1884211,26.0703846 C62.1884211,25.8953846 62.0443421,25.755 61.8647368,25.755 L54.2542105,25.755 Z M61.8647368,37.9473077 L54.2542105,37.9473077 C53.4153947,37.9473077 52.7344737,37.2838462 52.7344737,36.4665385 L52.7344737,26.0703846 C52.7344737,25.2530769 53.4153947,24.5896154 54.2542105,24.5896154 L61.8647368,24.5896154 C62.7035526,24.5896154 63.3844737,25.2530769 63.3844737,26.0703846 L63.3844737,36.4665385 C63.3844737,37.2838462 62.7035526,37.9473077 61.8647368,37.9473077 L61.8647368,37.9473077 Z" id="Fill-4" fill="#FFFFFF"></path>
                            <path d="M57.4728947,31.7307692 L56.9478947,27.4307692 C56.9478947,27.3384615 57.0228947,27.2653846 57.1176316,27.2653846 L59.0025,27.2653846 C59.0952632,27.2653846 59.1722368,27.3384615 59.1722368,27.4307692 L58.6472368,31.7307692 C58.6472368,31.8230769 58.5702632,31.8961538 58.4755263,31.8961538 L57.6426316,31.8961538 C57.5498684,31.8961538 57.4728947,31.8230769 57.4728947,31.7307692" id="Fill-6" fill="#FFFFFF"></path>
                            <path d="M57.1867105,35.1609615 L57.1867105,33.7436538 C57.1867105,33.6532692 57.2636842,33.5782692 57.3564474,33.5782692 L58.7617105,33.5782692 C58.8564474,33.5782692 58.9334211,33.6532692 58.9334211,33.7436538 L58.9334211,35.1609615 C58.9334211,35.2532692 58.8564474,35.3263462 58.7617105,35.3263462 L57.3564474,35.3263462 C57.2636842,35.3263462 57.1867105,35.2532692 57.1867105,35.1609615" id="Fill-8" fill="#FFFFFF"></path>
                            <mask id="mask-2" fill="white">
                                <use xlink:href="#path-1"></use>
                            </mask>
                            <g id="Clip-11"></g>
                            <polygon id="Fill-10" fill="#FFFFFF" mask="url(#mask-2)" points="28.3105263 64.725 29.5065789 64.725 29.5065789 48.3 28.3105263 48.3"></polygon>
                            <polygon id="Fill-12" fill="#FFFFFF" mask="url(#mask-2)" points="22.4881579 64.725 23.6842105 64.725 23.6842105 50.9442308 22.4881579 50.9442308"></polygon>
                            <polygon id="Fill-13" fill="#FFFFFF" mask="url(#mask-2)" points="23.0684211 46.8442308 33.1638158 46.8442308 33.1638158 45.6788462 23.0684211 45.6788462"></polygon>
                            <polygon id="Fill-14" fill="#FFFFFF" mask="url(#mask-2)" points="25.5256579 15.625 26.7217105 15.625 26.7217105 14.7173077 25.5256579 14.7173077"></polygon>
                            <polygon id="Fill-15" fill="#FFFFFF" mask="url(#mask-2)" points="30.4302632 15.625 31.6263158 15.625 31.6263158 14.7173077 30.4302632 14.7173077"></polygon>
                            <polygon id="Fill-16" fill="#FFFFFF" mask="url(#mask-2)" points="29.9686184 13.1686538 28.7725658 13.1686538 28.7725658 11.5628846 28.4054605 11.5628846 28.4054605 13.1686538 27.2094079 13.1686538 27.2094079 10.3955769 29.9686184 10.3955769"></polygon>
                            <path d="M24.5968421,17.3875 L23.4007895,17.3875 L23.4007895,16.0528846 C23.4007895,13.5990385 25.1988158,11.5201923 27.6777632,11.1086538 L27.8790789,12.2586538 C25.9764474,12.5740385 24.5968421,14.1701923 24.5968421,16.0528846 L24.5968421,17.3875 Z" id="Fill-17" fill="#FFFFFF" mask="url(#mask-2)"></path>
                            <path d="M33.6953289,17.3875 L32.4992763,17.3875 L32.4992763,16.0528846 C32.4992763,14.1817308 31.1315132,12.5875 29.2446711,12.2625 L29.4558553,11.1144231 C31.9130921,11.5394231 33.6953289,13.6163462 33.6953289,16.0528846 L33.6953289,17.3875 Z" id="Fill-18" fill="#FFFFFF" mask="url(#mask-2)"></path>
                            <polygon id="Fill-19" fill="#FFFFFF" mask="url(#mask-2)" points="23.0131579 18.025 34.1388158 18.025 34.1388158 16.8596154 23.0131579 16.8596154"></polygon>
                            <polygon id="Fill-20" fill="#FFFFFF" mask="url(#mask-2)" points="26.7434211 29.0269231 30.4085526 29.0269231 30.4085526 27.8615385 26.7434211 27.8615385"></polygon>
                            <polygon id="Fill-21" fill="#FFFFFF" mask="url(#mask-2)" points="26.7434211 31.0730769 30.4085526 31.0730769 30.4085526 29.9076923 26.7434211 29.9076923"></polygon>
                            <path d="M28.5769737,23.8488462 C26.2875,23.8488462 23.8164474,21.8488462 23.8164474,18.62 L25.0144737,18.62 C25.0144737,21.1296154 26.8638158,22.6834615 28.5769737,22.6834615 C30.2881579,22.6834615 32.1375,21.1411538 32.1375,18.6488462 L33.3335526,18.6488462 C33.3335526,21.8603846 30.8644737,23.8488462 28.5769737,23.8488462" id="Fill-22" fill="#FFFFFF" mask="url(#mask-2)"></path>
                            <polygon id="Fill-23" fill="#FFFFFF" mask="url(#mask-2)" points="31.2414474 42.7576923 32.4375 42.7576923 32.4375 25.2307692 31.2414474 25.2307692"></polygon>
                            <polygon id="Fill-24" fill="#FFFFFF" mask="url(#mask-2)" points="33.3611842 42.7576923 34.5572368 42.7576923 34.5572368 25.2307692 33.3611842 25.2307692"></polygon>
                            <path d="M22.1577632,25.7625 C21.8478947,25.8028846 20.0755263,26.1125 20.0755263,27.9990385 L20.0755263,48.8990385 L22.5939474,48.8932692 L22.5939474,25.7625 L22.1577632,25.7625 Z M35.3301316,64.7240385 L34.1321053,64.7240385 L34.1321053,45.6778846 L36.0623684,45.6778846 L36.0623684,30.7086538 C36.0623684,29.8009615 36.4452632,29.2605769 36.765,28.9682692 C37.5446053,28.2567308 38.6459211,28.3067308 38.7682895,28.3144231 L50.4130263,28.3144231 L50.4130263,25.7625 L23.79,25.7625 L23.79,50.0548077 L18.8794737,50.0682692 L18.8794737,27.9990385 C18.8794737,25.5644231 20.9597368,24.7105769 22.0590789,24.5990385 L22.1202632,24.5971154 L51.6110526,24.5971154 L51.6110526,29.4798077 L38.7288158,29.4798077 C38.6853947,29.4778846 37.9886842,29.4471154 37.5781579,29.8240385 C37.365,30.0221154 37.2584211,30.3125 37.2584211,30.7086538 L37.2584211,46.8432692 L35.3301316,46.8432692 L35.3301316,64.7240385 Z" id="Fill-25" fill="#FFFFFF" mask="url(#mask-2)"></path>
                            <polygon id="Fill-26" fill="#FFFFFF" mask="url(#mask-2)" points="36.5575658 43.6213462 24.7036184 43.6213462 24.7134868 25.2290385 25.9095395 25.2309615 25.9016447 42.4559615 36.5575658 42.4559615"></polygon>
                        </g>
                    </g>
                </g>
            </g>
        </g>
    </g>
</svg>